<svg width="28" height="28" viewBox="0 0 28 28" fill="none" xmlns="http://www.w3.org/2000/svg">
<path d="M9.06908 27.3891C10.1228 27.3891 10.977 26.4991 10.977 25.4012C10.977 24.3033 10.1228 23.4133 9.06908 23.4133C8.01535 23.4133 7.16113 24.3033 7.16113 25.4012C7.16113 26.4991 8.01535 27.3891 9.06908 27.3891Z" fill="#606060"/>
<path d="M20.6607 27.3891C21.7144 27.3891 22.5686 26.4991 22.5686 25.4012C22.5686 24.3033 21.7144 23.4133 20.6607 23.4133C19.6069 23.4133 18.7527 24.3033 18.7527 25.4012C18.7527 26.4991 19.6069 27.3891 20.6607 27.3891Z" fill="#606060"/>
<path d="M16.9045 5.30131C16.8659 5.00851 16.8461 4.71335 16.8452 4.41781C16.8461 4.12226 16.8659 3.8271 16.9045 3.5343H7.50885L8.06004 5.30131H16.9045Z" fill="#606060"/>
<path d="M23.205 11.0444H22.8488L21.7889 15.9037H9.06913L5.19385 3.11934C5.15193 2.98368 5.07914 2.86061 4.98168 2.76061C4.88423 2.66061 4.765 2.58666 4.63418 2.54506L1.15745 1.43184C1.05055 1.39762 0.938219 1.38566 0.826881 1.39666C0.715543 1.40767 0.607375 1.44141 0.508553 1.49597C0.308974 1.60615 0.159579 1.79443 0.0932337 2.01937C0.0268885 2.24432 0.0490278 2.48751 0.154781 2.69545C0.260534 2.90339 0.441239 3.05905 0.657142 3.12817L3.7014 4.10003L7.59364 16.9109L6.20295 18.0947L6.09271 18.2096C5.74871 18.6226 5.55373 19.1477 5.54135 19.6944C5.52897 20.2411 5.69996 20.7752 6.02487 21.2047C6.25599 21.4975 6.54969 21.73 6.88247 21.8834C7.21524 22.0368 7.57786 22.1069 7.94131 22.0882H22.0941C22.319 22.0882 22.5347 21.9951 22.6937 21.8294C22.8528 21.6637 22.9421 21.439 22.9421 21.2047C22.9421 20.9704 22.8528 20.7456 22.6937 20.58C22.5347 20.4143 22.319 20.3212 22.0941 20.3212H7.80563C7.70798 20.3177 7.61285 20.2881 7.52941 20.2351C7.44597 20.1821 7.37706 20.1076 7.32932 20.0188C7.28158 19.93 7.25663 19.8298 7.25688 19.728C7.25714 19.6262 7.28258 19.5262 7.33076 19.4377L9.3744 17.6707H22.4672C22.6633 17.6757 22.8549 17.6097 23.0095 17.4841C23.1641 17.3584 23.2721 17.1808 23.3152 16.9815L24.6466 10.8765C24.1737 10.9895 23.6901 11.0458 23.205 11.0444V11.0444Z" fill="#606060"/>
<path d="M23.2048 8.83505C25.5464 8.83505 27.4447 6.85726 27.4447 4.41753C27.4447 1.97779 25.5464 0 23.2048 0C20.8631 0 18.9648 1.97779 18.9648 4.41753C18.9648 6.85726 20.8631 8.83505 23.2048 8.83505Z" fill="#F79E1B"/>
</svg>
