<svg width="40" height="39" viewBox="0 0 40 39" fill="none" xmlns="http://www.w3.org/2000/svg">
<rect opacity="0.25" x="0.727997" y="0.5" width="38.1415" height="38" rx="19" stroke="white"/>
<path fill-rule="evenodd" clip-rule="evenodd" d="M16.286 26H13.2751V17H16.286V26Z" fill="white"/>
<path fill-rule="evenodd" clip-rule="evenodd" d="M14.7716 15H14.7545C13.856 15 13.2751 14.333 13.2751 13.4995C13.2751 12.6483 13.8737 12 14.7893 12C15.7048 12 16.2687 12.6483 16.286 13.4995C16.286 14.333 15.7048 15 14.7716 15Z" fill="white"/>
<path fill-rule="evenodd" clip-rule="evenodd" d="M27.3258 25.9998H24.3672V21.2954C24.3672 20.1137 23.939 19.3074 22.868 19.3074C22.0505 19.3074 21.5637 19.851 21.3498 20.376C21.2716 20.5641 21.2524 20.8263 21.2524 21.0891V26H18.2933C18.2933 26 18.3323 18.0318 18.2933 17.2067H21.2524V18.4522C21.6451 17.8535 22.3484 17 23.9193 17C25.8663 17 27.3259 18.2571 27.3259 20.958L27.3258 25.9998Z" fill="white"/>
</svg>
