<svg width="40" height="39" viewBox="0 0 40 39" fill="none" xmlns="http://www.w3.org/2000/svg">
<rect opacity="0.25" x="0.920349" y="0.5" width="38.1415" height="38" rx="19" stroke="white"/>
<path fill-rule="evenodd" clip-rule="evenodd" d="M19.8027 16.9262L19.831 17.402L19.3596 17.3437C17.6438 17.1204 16.1449 16.363 14.8722 15.091L14.25 14.4599L14.0897 14.926C13.7503 15.9649 13.9672 17.0621 14.6742 17.8001C15.0513 18.2079 14.9665 18.2661 14.316 18.0234C14.0897 17.9457 13.8918 17.8874 13.8729 17.9166C13.8069 17.9845 14.0332 18.8681 14.2123 19.2177C14.4574 19.7032 14.957 20.179 15.5038 20.4605L15.9658 20.6839L15.419 20.6936C14.8911 20.6936 14.8722 20.7033 14.9288 20.9072C15.1173 21.5383 15.8621 22.2083 16.6917 22.4996L17.2762 22.7035L16.7671 23.0142C16.0129 23.4609 15.1267 23.7133 14.2406 23.7328C13.8163 23.7425 13.4675 23.7813 13.4675 23.8104C13.4675 23.9075 14.6177 24.4513 15.287 24.6649C17.295 25.296 19.6801 25.0242 21.4713 23.9464C22.744 23.1793 24.0167 21.6549 24.6106 20.179C24.9311 19.3925 25.2517 17.9554 25.2517 17.266C25.2517 16.8194 25.2799 16.7611 25.8079 16.2271C26.119 15.9164 26.4112 15.5765 26.4678 15.4794C26.5621 15.2949 26.5526 15.2949 26.0718 15.46C25.2705 15.7513 25.1574 15.7124 25.5533 15.2755C25.8456 14.9648 26.1944 14.4016 26.1944 14.2366C26.1944 14.2074 26.053 14.256 25.8927 14.3434C25.723 14.4405 25.3459 14.5861 25.0631 14.6735L24.554 14.8386L24.0921 14.5181C23.8376 14.3434 23.4793 14.1492 23.2908 14.0909C22.81 13.955 22.0747 13.9744 21.641 14.1297C20.4626 14.5667 19.7178 15.693 19.8027 16.9262Z" fill="white"/>
</svg>
