<svg width="19" height="27" viewBox="0 0 19 27" fill="none" xmlns="http://www.w3.org/2000/svg">
<path d="M9.55576 1.86097C10.4897 1.86097 11.4027 2.13383 12.1793 2.64505C12.9559 3.15627 13.5611 3.88288 13.9185 4.733C14.2759 5.58312 14.3695 6.51857 14.1872 7.42105C14.005 8.32354 13.5553 9.15252 12.8949 9.80318C12.2345 10.4538 11.393 10.8969 10.477 11.0765C9.561 11.256 8.61152 11.1638 7.74865 10.8117C6.88578 10.4596 6.14827 9.86325 5.62938 9.09816C5.1105 8.33308 4.83355 7.43357 4.83355 6.51341C4.83355 5.27951 5.33106 4.09614 6.21665 3.22364C7.10224 2.35114 8.30335 1.86097 9.55576 1.86097ZM9.55576 0C8.24821 0 6.97002 0.382005 5.88283 1.09771C4.79564 1.81341 3.94828 2.83067 3.4479 4.02084C2.94752 5.21101 2.8166 6.52064 3.07169 7.78411C3.32678 9.04759 3.95643 10.2082 4.88101 11.1191C5.80559 12.03 6.98357 12.6503 8.266 12.9017C9.54843 13.153 10.8777 13.024 12.0857 12.531C13.2937 12.038 14.3263 11.2032 15.0527 10.1321C15.7791 9.06094 16.1669 7.80164 16.1669 6.51341C16.1669 4.78595 15.4703 3.12923 14.2305 1.90773C12.9907 0.686232 11.3091 0 9.55576 0Z" fill="#606060"/>
<path d="M19.0002 26.0538H17.1113V21.4013C17.1113 20.1674 16.6138 18.9841 15.7282 18.1116C14.8426 17.2391 13.6415 16.7489 12.3891 16.7489H6.72244C5.47003 16.7489 4.26891 17.2391 3.38332 18.1116C2.49774 18.9841 2.00022 20.1674 2.00022 21.4013V26.0538H0.111328V21.4013C0.111328 19.6739 0.807854 18.0172 2.04768 16.7957C3.2875 15.5742 4.96906 14.8879 6.72244 14.8879H12.3891C14.1425 14.8879 15.824 15.5742 17.0639 16.7957C18.3037 18.0172 19.0002 19.6739 19.0002 21.4013V26.0538Z" fill="#606060"/>
</svg>
