<svg width="18" height="18" viewBox="0 0 18 18" fill="none" xmlns="http://www.w3.org/2000/svg">
<path d="M2.19414 5.51658H16.1296V16.8392C16.1296 17.0702 16.0379 17.2917 15.8745 17.455C15.7112 17.6184 15.4897 17.7101 15.2587 17.7101H3.06511C2.83412 17.7101 2.61258 17.6184 2.44925 17.455C2.28591 17.2917 2.19414 17.0702 2.19414 16.8392V5.51658ZM3.93608 7.25851V15.9682H14.3877V7.25851H3.93608ZM6.54898 9.00045H8.29092V14.2263H6.54898V9.00045ZM10.0329 9.00045H11.7748V14.2263H10.0329V9.00045ZM4.80705 2.90367V1.16174C4.80705 0.930744 4.89881 0.70921 5.06215 0.545872C5.22549 0.382534 5.44702 0.290771 5.67802 0.290771H12.6458C12.8768 0.290771 13.0983 0.382534 13.2616 0.545872C13.425 0.70921 13.5167 0.930744 13.5167 1.16174V2.90367H17.8716V4.64561H0.452209V2.90367H4.80705ZM6.54898 2.03271V2.90367H11.7748V2.03271H6.54898Z" fill="#242424"/>
</svg>
