<svg width="100" height="63" viewBox="0 0 100 63" fill="none" xmlns="http://www.w3.org/2000/svg">
<path d="M99.3604 31.2786C99.3604 48.3354 86.173 62.276 69.6887 62.276C53.3614 62.276 40.017 48.3354 40.017 31.2786C40.017 14.2219 53.2045 0.28125 69.5317 0.28125C86.173 0.28125 99.3604 14.2219 99.3604 31.2786Z" fill="#FFB600"/>
<path d="M69.6887 0.28125C86.016 0.28125 99.3604 14.2219 99.3604 31.2786C99.3604 48.3354 86.173 62.276 69.6887 62.276C53.3614 62.276 40.017 48.3354 40.017 31.2786" fill="#F7981D"/>
<path d="M69.6897 0.28125C86.017 0.28125 99.3614 14.2219 99.3614 31.2786C99.3614 48.3354 86.174 62.276 69.6897 62.276" fill="#FF8500"/>
<path d="M29.8128 0.28125C13.6425 0.445257 0.455078 14.2219 0.455078 31.2786C0.455078 48.3354 13.6425 62.276 30.1268 62.276C37.8195 62.276 44.7272 59.1599 50.0649 54.2396C51.1639 53.2556 52.1058 52.1076 53.0478 50.9595H46.9251C46.1401 49.9755 45.3551 48.8274 44.7272 47.8434H55.2457C55.8737 46.8593 56.5016 45.7113 56.9726 44.5632H43.0002C42.5293 43.5792 42.0583 42.4311 41.7443 41.2831H58.0716C59.0135 38.1669 59.6415 34.8868 59.6415 31.4426C59.6415 29.1465 59.3275 27.0144 59.0135 24.8823H40.8023C40.9593 23.7343 41.2733 22.7502 41.5873 21.6022H57.9146C57.6006 20.4541 57.1296 19.3061 56.6586 18.3221H42.8432C43.3142 17.174 43.9422 16.19 44.5702 15.0419H55.0887C54.4607 13.8939 53.6758 12.7458 52.7338 11.7618H46.9251C47.867 10.6137 48.809 9.62967 49.9079 8.64562C44.7272 3.5614 37.6625 0.609264 29.9698 0.609264C29.9698 0.28125 29.9698 0.28125 29.8128 0.28125Z" fill="#FF5050"/>
<path d="M0.455078 31.2786C0.455078 48.3354 13.6425 62.276 30.1268 62.276C37.8195 62.276 44.7272 59.1598 50.0649 54.2396C51.1639 53.2556 52.1058 52.1075 53.0478 50.9595H46.9251C46.1401 49.9754 45.3551 48.8274 44.7272 47.8433H55.2457C55.8737 46.8593 56.5016 45.7112 56.9726 44.5632H43.0002C42.5293 43.5791 42.0583 42.4311 41.7443 41.283H58.0716C59.0135 38.1669 59.6415 34.8868 59.6415 31.4426C59.6415 29.1465 59.3275 27.0144 59.0135 24.8823H40.8023C40.9593 23.7343 41.2733 22.7502 41.5873 21.6022H57.9146C57.6006 20.4541 57.1296 19.3061 56.6586 18.322H42.8432C43.3142 17.174 43.9422 16.1899 44.5702 15.0419H55.0887C54.4607 13.8938 53.6758 12.7458 52.7338 11.7617H46.9251C47.867 10.6137 48.809 9.62965 49.9079 8.64561C44.7272 3.56138 37.6625 0.609253 29.9698 0.609253H29.8128" fill="#E52836"/>
<path d="M30.1269 62.276C37.8195 62.276 44.7272 59.1598 50.065 54.2396C51.1639 53.2556 52.1059 52.1075 53.0478 50.9595H46.9251C46.1402 49.9754 45.3552 48.8274 44.7272 47.8433H55.2458C55.8737 46.8593 56.5017 45.7112 56.9727 44.5632H43.0003C42.5293 43.5791 42.0583 42.4311 41.7443 41.283H58.0716C59.0136 38.1669 59.6416 34.8868 59.6416 31.4426C59.6416 29.1465 59.3276 27.0144 59.0136 24.8823H40.8024C40.9594 23.7343 41.2734 22.7502 41.5874 21.6022H57.9146C57.6006 20.4541 57.1297 19.3061 56.6587 18.322H42.8433C43.3143 17.174 43.9422 16.1899 44.5702 15.0419H55.0888C54.4608 13.8938 53.6758 12.7458 52.7339 11.7617H46.9251C47.8671 10.6137 48.809 9.62965 49.908 8.64561C44.7272 3.56138 37.6625 0.609253 29.9699 0.609253H29.8129" fill="#CB2026"/>
<path d="M40.6456 39.151L41.1166 36.3629C40.9596 36.3629 40.6456 36.5269 40.3317 36.5269C39.2327 36.5269 39.0757 35.8709 39.2327 35.5429L40.1747 29.8026H41.9016L42.3726 26.6865H40.8026L41.1166 24.7184H37.9768C37.9768 24.7184 36.0928 35.5429 36.0928 36.8549C36.0928 38.823 37.1918 39.6431 38.6047 39.6431C39.5467 39.6431 40.3317 39.315 40.6456 39.151Z" fill="white"/>
<path d="M41.7448 33.9024C41.7448 38.4946 44.7276 39.6427 47.2395 39.6427C49.5944 39.6427 50.5364 39.1507 50.5364 39.1507L51.1643 36.0345C51.1643 36.0345 49.4374 36.8546 47.8675 36.8546C44.4136 36.8546 45.0416 34.2305 45.0416 34.2305H51.4783C51.4783 34.2305 51.9493 32.0984 51.9493 31.2783C51.9493 29.1462 50.8504 26.5221 47.3965 26.5221C44.0997 26.1941 41.7448 29.8022 41.7448 33.9024ZM47.2395 29.1462C48.9664 29.1462 48.6525 31.2783 48.6525 31.4423H45.1986C45.1986 31.2783 45.5126 29.1462 47.2395 29.1462Z" fill="white"/>
<path d="M67.1769 39.1509L67.8049 35.5427C67.8049 35.5427 66.235 36.3628 65.136 36.3628C62.9381 36.3628 61.9961 34.5587 61.9961 32.5906C61.9961 28.6544 63.8801 26.5223 66.078 26.5223C67.6479 26.5223 68.9038 27.5064 68.9038 27.5064L69.3748 24.0622C69.3748 24.0622 67.4909 23.2422 65.764 23.2422C62.1531 23.2422 58.5423 26.5223 58.5423 32.7546C58.5423 36.8548 60.4262 39.6429 64.194 39.6429C65.45 39.6429 67.1769 39.1509 67.1769 39.1509Z" fill="white"/>
<path d="M23.3765 26.1945C21.1786 26.1945 19.6087 26.8505 19.6087 26.8505L19.1377 29.6386C19.1377 29.6386 20.5506 28.9826 22.5915 28.9826C23.6905 28.9826 24.6325 29.1466 24.6325 30.1306C24.6325 30.7867 24.4755 30.9507 24.4755 30.9507C24.4755 30.9507 23.5335 30.9507 23.0625 30.9507C20.3936 30.9507 17.4108 32.0987 17.4108 35.8709C17.4108 38.823 19.2947 39.4791 20.3936 39.4791C22.5915 39.4791 23.5335 38.003 23.6905 38.003L23.5335 39.3151H26.3594L27.6153 30.2946C27.6153 26.3585 24.4755 26.1945 23.3765 26.1945ZM24.0045 33.5748C24.0045 34.0668 23.6905 36.6909 21.8066 36.6909C20.8646 36.6909 20.5506 35.8709 20.5506 35.3789C20.5506 34.5588 21.0216 33.4108 23.3765 33.4108C23.8475 33.5748 24.0045 33.5748 24.0045 33.5748Z" fill="white"/>
<path d="M30.5975 39.4789C31.3825 39.4789 35.3073 39.6429 35.3073 35.2147C35.3073 31.1145 31.5395 31.9345 31.5395 30.2945C31.5395 29.4744 32.1675 29.1464 33.2664 29.1464C33.7374 29.1464 35.4643 29.3104 35.4643 29.3104L35.9353 26.3583C35.9353 26.3583 34.8364 26.0303 32.9524 26.0303C30.5975 26.0303 28.2426 27.0143 28.2426 30.2945C28.2426 34.0666 32.1675 33.7386 32.1675 35.2147C32.1675 36.1987 31.0685 36.3627 30.2835 36.3627C28.8706 36.3627 27.4577 35.8707 27.4577 35.8707L26.9867 38.8229C27.1437 39.1509 27.9287 39.4789 30.5975 39.4789Z" fill="white"/>
<path d="M93.2379 23.5702L92.6099 27.9984C92.6099 27.9984 91.354 26.3583 89.6271 26.3583C86.8012 26.3583 84.2893 29.9665 84.2893 34.2307C84.2893 36.8548 85.5453 39.6429 88.2141 39.6429C90.098 39.6429 91.197 38.3309 91.197 38.3309L91.04 39.4789H94.1799L96.5348 23.7342L93.2379 23.5702ZM91.825 32.2626C91.825 34.0667 91.04 36.3628 89.3131 36.3628C88.2141 36.3628 87.5862 35.3787 87.5862 33.7386C87.5862 31.1145 88.6851 29.4745 90.098 29.4745C91.197 29.4745 91.825 30.2945 91.825 32.2626Z" fill="white"/>
<path d="M6.26375 39.3149L8.14767 27.5064L8.46166 39.3149H10.6596L14.7414 27.5064L13.0145 39.3149H16.3113L18.8232 23.5702H13.6424L10.5026 33.2466L10.3456 23.5702H5.79278L3.28088 39.3149H6.26375Z" fill="white"/>
<path d="M54.9312 39.3151C55.8732 33.9028 56.0302 29.4746 58.2281 30.2946C58.542 28.1625 59.013 27.3425 59.327 26.5225C59.327 26.5225 59.17 26.5225 58.699 26.5225C57.2861 26.5225 56.1872 28.4906 56.1872 28.4906L56.5011 26.6865H53.5183L51.4774 39.4791H54.9312V39.3151Z" fill="white"/>
<path d="M74.399 26.1945C72.2011 26.1945 70.6311 26.8505 70.6311 26.8505L70.1602 29.6386C70.1602 29.6386 71.5731 28.9826 73.614 28.9826C74.7129 28.9826 75.6549 29.1466 75.6549 30.1306C75.6549 30.7867 75.4979 30.9507 75.4979 30.9507C75.4979 30.9507 74.556 30.9507 74.085 30.9507C71.4161 30.9507 68.4332 32.0987 68.4332 35.8709C68.4332 38.823 70.3171 39.4791 71.4161 39.4791C73.614 39.4791 74.556 38.003 74.7129 38.003L74.556 39.3151H77.3818L78.6378 30.2946C78.7948 26.3585 75.4979 26.1945 74.399 26.1945ZM75.1839 33.5748C75.1839 34.0668 74.8699 36.6909 72.986 36.6909C72.0441 36.6909 71.7301 35.8709 71.7301 35.3789C71.7301 34.5588 72.2011 33.4108 74.556 33.4108C75.0269 33.5748 75.0269 33.5748 75.1839 33.5748Z" fill="white"/>
<path d="M81.3064 39.3151C82.2483 33.9028 82.4053 29.4746 84.6032 30.2946C84.9172 28.1625 85.3882 27.3425 85.7022 26.5225C85.7022 26.5225 85.5452 26.5225 85.0742 26.5225C83.6613 26.5225 82.5623 28.4906 82.5623 28.4906L82.8763 26.6865H79.8934L77.8525 39.4791H81.3064V39.3151Z" fill="white"/>
<path d="M35.7796 36.8549C35.7796 38.823 36.8786 39.6431 38.2915 39.6431C39.3904 39.6431 40.3324 39.315 40.6464 39.151L41.1174 36.3629C40.9604 36.3629 40.6464 36.5269 40.3324 36.5269C39.2335 36.5269 39.0765 35.8709 39.2335 35.5429L40.1754 29.8026H41.9023L42.3733 26.6865H40.8034L41.1174 24.7184" fill="#DCE5E5"/>
<path d="M43.3144 33.9024C43.3144 38.4946 44.7273 39.6427 47.2392 39.6427C49.5941 39.6427 50.5361 39.1507 50.5361 39.1507L51.164 36.0345C51.164 36.0345 49.4371 36.8546 47.8672 36.8546C44.4133 36.8546 45.0413 34.2305 45.0413 34.2305H51.478C51.478 34.2305 51.949 32.0984 51.949 31.2783C51.949 29.1462 50.8501 26.5221 47.3962 26.5221C44.0994 26.1941 43.3144 29.8022 43.3144 33.9024ZM47.2392 29.1462C48.9661 29.1462 49.2801 31.2783 49.2801 31.4423H45.1983C45.1983 31.2783 45.5123 29.1462 47.2392 29.1462Z" fill="#DCE5E5"/>
<path d="M67.1783 39.1509L67.8062 35.5427C67.8062 35.5427 66.2363 36.3628 65.1374 36.3628C62.9395 36.3628 61.9975 34.5587 61.9975 32.5906C61.9975 28.6544 63.8814 26.5223 66.0793 26.5223C67.6493 26.5223 68.9052 27.5064 68.9052 27.5064L69.3762 24.0622C69.3762 24.0622 67.4923 23.2422 65.7653 23.2422C62.1545 23.2422 60.1136 26.5223 60.1136 32.7546C60.1136 36.8548 60.4276 39.6429 64.1954 39.6429C65.4513 39.6429 67.1783 39.1509 67.1783 39.1509Z" fill="#DCE5E5"/>
<path d="M19.1377 29.8026C19.1377 29.8026 20.5506 29.1466 22.5915 29.1466C23.6905 29.1466 24.6325 29.3106 24.6325 30.2946C24.6325 30.9507 24.4755 31.1147 24.4755 31.1147C24.4755 31.1147 23.5335 31.1147 23.0625 31.1147C20.3936 31.1147 17.4108 32.2627 17.4108 36.0349C17.4108 38.9871 19.2947 39.6431 20.3936 39.6431C22.5915 39.6431 23.5335 38.167 23.6905 38.167L23.5335 39.4791H26.3594L27.6153 30.4586C27.6153 26.6865 24.4755 26.5225 23.2195 26.5225L19.1377 29.8026ZM25.5744 33.5748C25.5744 34.0668 23.6905 36.6909 21.8066 36.6909C20.8646 36.6909 20.5506 35.8709 20.5506 35.3789C20.5506 34.5588 21.0216 33.4108 23.3765 33.4108C23.8475 33.5748 25.5744 33.5748 25.5744 33.5748Z" fill="#DCE5E5"/>
<path d="M27.145 39.1509C27.145 39.1509 28.087 39.4789 30.7559 39.4789C31.5408 39.4789 35.4657 39.6429 35.4657 35.2147C35.4657 31.1145 31.6978 31.9345 31.6978 30.2945C31.6978 29.4744 32.3258 29.1464 33.4248 29.1464C33.8957 29.1464 35.6227 29.3104 35.6227 29.3104L36.0936 26.3583C36.0936 26.3583 34.9947 26.0303 33.1108 26.0303C30.7559 26.0303 29.9709 27.0143 29.9709 30.2945C29.9709 34.0666 32.3258 33.7386 32.3258 35.2147C32.3258 36.1987 31.2268 36.3627 30.4419 36.3627" fill="#DCE5E5"/>
<path d="M92.6093 27.9986C92.6093 27.9986 91.3533 26.3585 89.6264 26.3585C86.8005 26.3585 85.8586 29.9667 85.8586 34.2308C85.8586 36.855 85.5446 39.6431 88.2135 39.6431C90.0974 39.6431 91.1963 38.331 91.1963 38.331L91.0393 39.4791H94.1792L96.5341 23.7344L92.6093 27.9986ZM92.4523 32.2628C92.4523 34.0668 91.0393 36.3629 89.3124 36.3629C88.2135 36.3629 87.5855 35.3789 87.5855 33.7388C87.5855 31.1147 88.6844 29.4746 90.0974 29.4746C91.1963 29.4746 92.4523 30.2947 92.4523 32.2628Z" fill="#DCE5E5"/>
<path d="M6.26375 39.3149L8.14767 27.5064L8.46166 39.3149H10.6596L14.7414 27.5064L13.0145 39.3149H16.3113L18.8232 23.5702H14.8984L10.5026 33.2466L10.3456 23.5702H8.61865L3.28088 39.3149H6.26375Z" fill="#DCE5E5"/>
<path d="M51.634 39.315H54.9308C55.8728 33.9028 56.0298 29.4746 58.2277 30.2946C58.5417 28.1625 59.0127 27.3425 59.3267 26.5225C59.3267 26.5225 59.1697 26.5225 58.6987 26.5225C57.2857 26.5225 56.1868 28.4905 56.1868 28.4905L56.5008 26.6865" fill="#DCE5E5"/>
<path d="M70.1597 29.8024C70.1597 29.8024 71.5726 29.1463 73.6135 29.1463C74.7125 29.1463 75.6544 29.3103 75.6544 30.2944C75.6544 30.9504 75.4974 31.1144 75.4974 31.1144C75.4974 31.1144 74.5555 31.1144 74.0845 31.1144C71.4156 31.1144 68.4327 32.2625 68.4327 36.0347C68.4327 38.9868 70.3167 39.6428 71.4156 39.6428C73.6135 39.6428 74.5555 38.1668 74.7125 38.1668L74.5555 39.4788H77.3813L78.6373 30.4584C78.6373 26.6862 75.4974 26.5222 74.2415 26.5222L70.1597 29.8024ZM76.5964 33.5746C76.5964 34.0666 74.7125 36.6907 72.8285 36.6907C71.8866 36.6907 71.5726 35.8707 71.5726 35.3786C71.5726 34.5586 72.0436 33.4105 74.3985 33.4105C75.0264 33.5746 76.5964 33.5746 76.5964 33.5746Z" fill="#DCE5E5"/>
<path d="M78.0092 39.315H81.306C82.248 33.9028 82.405 29.4746 84.6029 30.2946C84.9169 28.1625 85.3878 27.3425 85.7018 26.5225C85.7018 26.5225 85.5448 26.5225 85.0739 26.5225C83.6609 26.5225 82.562 28.4905 82.562 28.4905L82.8759 26.6865" fill="#DCE5E5"/>
</svg>
