<svg width="155" height="46" viewBox="0 0 155 46" fill="none" xmlns="http://www.w3.org/2000/svg">
<path d="M120.512 8.7929C116.751 8.7929 113.742 9.84471 111.235 10.3706L110.483 16.4185C111.737 15.8926 115.247 14.8408 118.255 14.5778C121.264 14.5778 123.019 15.1037 122.517 17.9962C113.492 17.9962 107.475 19.8368 106.221 26.1476C104.466 36.6657 115.497 36.9286 119.76 32.1955L119.258 35.088H127.281L130.791 17.9962C132.044 10.8965 126.027 8.52995 120.512 8.7929ZM121.013 26.4106C120.512 28.5142 118.757 29.3031 116.751 29.566C114.996 29.566 113.492 28.5142 114.495 26.4106C115.497 24.8329 117.754 24.8329 119.509 24.8329C120.01 24.8329 120.762 24.8329 121.514 24.8329C121.264 24.5699 121.013 25.6217 121.013 26.4106Z" fill="#32A6CE"/>
<path d="M110.483 16.4185C111.737 15.8926 115.247 14.8408 118.255 14.5779C121.264 14.5779 123.019 15.1038 122.517 17.9963C113.492 17.9963 107.475 19.8369 106.221 26.1477C104.466 36.6658 115.497 36.9287 119.76 32.1956L119.258 35.0881H127.281L130.791 17.9963C132.295 10.8966 126.027 9.05591 120.512 9.05591L110.483 16.4185ZM121.013 26.4107C120.512 28.5143 118.757 29.3032 116.751 29.5661C114.996 29.5661 113.492 28.5143 114.495 26.4107C115.497 24.833 117.754 24.833 119.509 24.833C120.01 24.833 120.762 24.833 121.514 24.833C121.264 24.57 121.013 25.6218 121.013 26.4107Z" fill="#1A80AD"/>
<path d="M137.56 0.904297L131.041 35.088H139.064L145.833 0.904297H137.56Z" fill="#32A6CE"/>
<path d="M143.326 0.904297L131.041 35.088H139.064L145.833 0.904297H137.56H143.326Z" fill="#1A80AD"/>
<path d="M100.204 0.904297H85.4123L78.8938 35.088H87.6687L89.9251 24.5699H96.1929C102.21 24.5699 107.224 20.8886 108.478 14.3148C109.731 6.68923 104.466 0.904297 100.204 0.904297ZM99.9535 12.7371C99.4521 15.1037 97.1957 16.6814 94.9393 16.6814H90.9279L92.6829 8.79283H96.945C99.2014 8.79283 100.455 10.3705 99.9535 12.7371Z" fill="#32A6CE"/>
<path d="M100.204 0.904297H90.1755L78.6428 35.088H87.4177L89.6741 24.5699H95.9419C101.959 24.5699 106.973 20.8886 108.227 14.3148C109.731 6.68923 104.466 0.904297 100.204 0.904297ZM99.9533 12.7371C99.4518 15.1037 97.1954 16.6814 94.939 16.6814H90.9277L92.6826 8.79283H96.9447C99.2011 8.79283 100.455 10.3705 99.9533 12.7371Z" fill="#1A80AD"/>
<path d="M42.2897 8.7929C38.529 8.7929 35.5205 9.84471 33.2641 10.3706L32.512 16.4185C33.5148 15.8926 37.2755 14.8408 40.284 14.5778C43.2926 14.5778 45.0475 15.1037 44.5461 17.9962C35.7712 17.9962 29.7542 19.8368 28.5006 26.1476C26.7456 36.6657 37.5262 36.9286 41.7883 32.1955L41.2869 35.088H49.3096L52.8196 17.9962C54.0731 10.8965 47.8054 8.52995 42.2897 8.7929ZM43.0418 26.4106C42.5404 28.5142 40.7854 29.3031 38.7798 29.566C37.0248 29.566 35.5205 28.5142 36.7741 26.4106C37.7769 24.8329 40.0333 24.8329 41.5376 24.8329C42.2897 24.8329 42.7911 24.8329 43.5433 24.8329C43.2926 24.5699 43.0418 25.6217 43.0418 26.4106Z" fill="#21789E"/>
<path d="M32.7629 16.4185C33.7658 15.8926 37.5265 14.8408 40.535 14.5779C43.5435 14.5779 45.2985 15.1038 44.7971 17.9963C36.0222 17.9963 30.0051 19.8369 28.7516 26.1477C26.9966 36.6658 37.7772 36.9287 42.0393 32.1956L41.2871 35.0881H49.3099L52.8198 17.9963C54.3241 10.8966 48.0563 9.05591 42.5407 9.05591L32.7629 16.4185ZM43.0421 26.4107C42.5407 28.5143 40.7857 29.3032 38.78 29.5661C37.025 29.5661 35.5208 28.5143 36.7743 26.4107C37.7772 24.833 40.0336 24.833 41.5378 24.833C42.29 24.833 42.7914 24.833 43.5435 24.833C43.2928 24.57 43.0421 25.6218 43.0421 26.4107Z" fill="#1A5B80"/>
<path d="M56.0783 8.79236H64.101L65.3546 23.5175L73.3774 8.79236H81.6508L62.5968 45.6053H53.5712L59.3375 34.5614L56.0783 8.79236Z" fill="#21789E"/>
<path d="M64.101 9.31826L65.3546 23.7805L73.3774 8.79236H81.6508L62.5968 45.6053H53.5712L59.3375 34.8244" fill="#1A5B80"/>
<path d="M22.483 0.905151H7.44036L0.921875 35.0887H9.69676L11.9532 24.5707H18.2209C24.238 24.5707 29.2522 20.8894 30.5058 14.3156C32.0101 6.69006 26.7451 0.905151 22.483 0.905151ZM22.2323 12.7379C21.7309 15.1045 19.4745 16.6822 17.2181 16.6822H13.2067L14.9617 8.79367H19.2238C21.4802 8.79367 22.7337 10.3714 22.2323 12.7379Z" fill="#21789E"/>
<path d="M22.483 0.905151H15.7138L0.921875 35.0887H9.69676L11.9532 24.5707H18.2209C24.238 24.5707 29.2522 20.8894 30.5058 14.3156C32.0101 6.69006 26.7451 0.905151 22.483 0.905151ZM22.2323 12.7379C21.7309 15.1045 19.4745 16.6822 17.2181 16.6822H13.2067L14.9617 8.79367H19.2238C21.4802 8.79367 22.7337 10.3714 22.2323 12.7379Z" fill="#1A5B80"/>
<path d="M40.7846 17.9966C34.0154 18.5225 29.5026 20.6261 28.4997 25.8851C26.7448 36.4031 37.5253 36.6661 41.7874 31.933L41.286 35.0884H49.3088L50.5623 28.7776L40.7846 17.9966ZM43.041 26.411C42.5396 28.5146 40.7846 29.3035 38.7789 29.5664C37.0239 29.5664 35.5197 28.5146 36.7732 26.411C37.7761 24.8333 40.0325 24.8333 41.5367 24.8333C42.2889 24.8333 42.7903 24.8333 43.5424 24.8333C43.2917 24.5703 43.041 25.6221 43.041 26.411Z" fill="#06435E"/>
<path d="M65.8557 23.2559L65.3542 24.0448L70.6192 29.3037L81.6505 8.7937H73.377L65.8557 23.2559Z" fill="#06435E"/>
<path d="M9.69659 35.0887L11.953 24.5707L1.67383 35.0887H9.69659Z" fill="#06435E"/>
<path d="M87.4164 35.087L89.6729 24.0431V24.306L79.3937 35.087H87.4164Z" fill="#2273AA"/>
<path d="M118.755 17.9958C111.986 18.5217 107.473 20.6253 106.47 25.8843C104.715 36.4023 115.746 36.6653 120.008 31.9322L119.256 35.0876H127.279L128.533 28.7768L118.755 17.9958ZM121.011 26.4102C120.51 28.5138 118.755 29.3027 116.749 29.5656C114.994 29.5656 113.49 28.5138 114.493 26.4102C115.496 24.8325 117.752 24.8325 119.507 24.8325C120.008 24.8325 120.761 24.8325 121.513 24.8325C121.262 24.5696 121.011 25.6214 121.011 26.4102Z" fill="#2273AA"/>
<path d="M136.807 19.573L131.041 35.0871H139.064L141.32 24.5691L136.807 19.573Z" fill="#2273AA"/>
<path d="M147.588 6.42519V2.74392H146.334V2.21802H149.593V2.74392H148.34V6.42519H147.588Z" fill="#32A6CE"/>
<path d="M150.095 6.4258V2.21863H150.847L151.85 5.11106C151.85 5.374 152.1 5.63695 152.1 5.63695C152.1 5.37401 152.1 5.374 152.351 4.84811L153.354 1.95569H154.106V6.16285H153.605V2.48158L152.351 6.16285H151.599L150.345 2.48158V6.16285H150.095V6.4258Z" fill="#32A6CE"/>
</svg>
