<svg width="42" height="42" viewBox="0 0 42 42" fill="none" xmlns="http://www.w3.org/2000/svg">
<circle cx="21" cy="21" r="21" fill="#EB5757"/>
<path d="M7.875 21.2173V23.0044H4.06641V21.2173H7.875ZM16.2173 24.3081V26H8.99561V24.5718C9.17627 24.1763 9.40576 23.7905 9.68408 23.4146C9.9624 23.0337 10.2944 22.6528 10.6802 22.272C11.0708 21.8862 11.5151 21.4907 12.0132 21.0854C12.3745 20.7925 12.6821 20.5264 12.936 20.2871C13.1899 20.043 13.3877 19.8257 13.5293 19.6353C13.6758 19.4448 13.7856 19.2568 13.8589 19.0713C13.9321 18.8809 13.9688 18.6953 13.9688 18.5146C13.9688 18.0654 13.854 17.7285 13.6245 17.5039C13.3999 17.2793 13.063 17.167 12.6138 17.167C12.1743 17.167 11.8374 17.2866 11.603 17.5259C11.3735 17.7603 11.2246 18.1143 11.1562 18.5879L9.0835 18.4707C9.20068 17.5137 9.55713 16.7837 10.1528 16.2808C10.7534 15.7778 11.5688 15.5264 12.5991 15.5264C13.7124 15.5264 14.5669 15.7803 15.1626 16.2881C15.7583 16.7959 16.0562 17.5088 16.0562 18.4268C16.0562 18.9443 15.9487 19.4082 15.7339 19.8184C15.519 20.2285 15.2456 20.6069 14.9136 20.9536C14.6401 21.2515 14.3301 21.5347 13.9834 21.8032C13.6416 22.0718 13.3096 22.333 12.9873 22.5869C12.6455 22.8604 12.333 23.1362 12.0498 23.4146C11.7715 23.6929 11.564 23.9907 11.4272 24.3081H16.2173ZM24.5522 20.8364C24.5522 22.5796 24.252 23.9004 23.6514 24.7988C23.0557 25.6973 22.1597 26.1465 20.9634 26.1465C19.7817 26.1465 18.8955 25.7046 18.3047 24.8208C17.7139 23.9321 17.4185 22.604 17.4185 20.8364C17.4185 19.0249 17.6992 17.687 18.2607 16.8228C18.8271 15.9585 19.7476 15.5264 21.022 15.5264C22.2427 15.5264 23.1362 15.9683 23.7026 16.8521C24.269 17.7358 24.5522 19.064 24.5522 20.8364ZM22.4868 20.8364C22.4868 19.9087 22.4453 19.1763 22.3623 18.6392C22.2793 18.0972 22.1304 17.7114 21.9155 17.4819C21.7007 17.2524 21.3979 17.1377 21.0073 17.1377C20.5923 17.1377 20.2725 17.2549 20.0479 17.4893C19.8281 17.7188 19.6768 18.1045 19.5938 18.6465C19.5156 19.1836 19.4766 19.9136 19.4766 20.8364C19.4766 21.7593 19.5181 22.4917 19.6011 23.0337C19.689 23.5708 19.8403 23.9541 20.0552 24.1836C20.2749 24.4131 20.5825 24.5278 20.978 24.5278C21.564 24.5278 21.9619 24.2446 22.1719 23.6782C22.3818 23.1118 22.4868 22.1646 22.4868 20.8364ZM28.1631 15.563C29.8818 15.563 30.7412 16.6567 30.7412 18.8442C30.7412 19.9087 30.519 20.7241 30.0747 21.2905C29.6353 21.8521 28.9858 22.1328 28.1265 22.1328C27.2769 22.1328 26.6348 21.8545 26.2002 21.2979C25.7656 20.7363 25.5483 19.9185 25.5483 18.8442C25.5483 17.7358 25.7583 16.9131 26.1782 16.376C26.5981 15.834 27.2598 15.563 28.1631 15.563ZM35.978 15.6802L29.2178 26H27.709L34.4473 15.6802H35.978ZM29.1519 18.8442C29.1519 18.0728 29.0762 17.5234 28.9248 17.1963C28.7783 16.8643 28.5244 16.6982 28.1631 16.6982C27.7725 16.6982 27.5015 16.8643 27.3501 17.1963C27.1987 17.5234 27.123 18.0728 27.123 18.8442C27.123 19.6108 27.2012 20.1602 27.3574 20.4922C27.5186 20.8242 27.7822 20.9902 28.1484 20.9902C28.5098 20.9902 28.7661 20.8242 28.9175 20.4922C29.0737 20.1602 29.1519 19.6108 29.1519 18.8442ZM38.1167 22.8359C38.1167 23.9004 37.897 24.7134 37.4575 25.2749C37.0181 25.8364 36.3735 26.1172 35.5239 26.1172C34.6646 26.1172 34.0176 25.8389 33.583 25.2822C33.1484 24.7256 32.9312 23.9102 32.9312 22.8359C32.9312 21.7422 33.1411 20.9219 33.561 20.375C33.981 19.8232 34.645 19.5474 35.5532 19.5474C36.4321 19.5474 37.0791 19.8257 37.4941 20.3823C37.9092 20.9341 38.1167 21.752 38.1167 22.8359ZM36.542 22.8359C36.542 22.0547 36.4663 21.5005 36.3149 21.1733C36.1685 20.8413 35.9146 20.6753 35.5532 20.6753C35.1626 20.6753 34.8916 20.8462 34.7402 21.188C34.5938 21.5249 34.5205 22.0742 34.5205 22.8359C34.5205 23.6221 34.5986 24.1738 34.7549 24.4912C34.916 24.8086 35.1772 24.9673 35.5386 24.9673C35.895 24.9673 36.1514 24.8013 36.3076 24.4692C36.4639 24.1372 36.542 23.5928 36.542 22.8359Z" fill="white"/>
</svg>
